<svg class="animated" id="freepik_stories-cute-chicken" xmlns="http://www.w3.org/2000/svg" viewBox="0 0 500 500" version="1.1" xmlns:xlink="http://www.w3.org/1999/xlink" xmlns:svgjs="http://svgjs.com/svgjs"><style>svg#freepik_stories-cute-chicken:not(.animated) .animable {opacity: 0;}svg#freepik_stories-cute-chicken.animated #freepik--background-complete--inject-50 {animation: 1s 1 forwards cubic-bezier(.36,-0.01,.5,1.38) slideDown;animation-delay: 0s;}svg#freepik_stories-cute-chicken.animated #freepik--Floor--inject-50 {animation: 1s 1 forwards cubic-bezier(.36,-0.01,.5,1.38) fadeIn;animation-delay: 0s;}svg#freepik_stories-cute-chicken.animated #freepik--speech-bubble--inject-50 {animation: 1s 1 forwards cubic-bezier(.36,-0.01,.5,1.38) lightSpeedRight;animation-delay: 0s;}svg#freepik_stories-cute-chicken.animated #freepik--Chicken--inject-50 {animation: 1s 1 forwards cubic-bezier(.36,-0.01,.5,1.38) slideUp;animation-delay: 0s;}            @keyframes slideDown {                0% {                    opacity: 0;                    transform: translateY(-30px);                }                100% {                    opacity: 1;                    transform: translateY(0);                }            }                    @keyframes fadeIn {                0% {                    opacity: 0;                }                100% {                    opacity: 1;                }            }                    @keyframes lightSpeedRight {              from {                transform: translate3d(50%, 0, 0) skewX(-20deg);                opacity: 0;              }              60% {                transform: skewX(10deg);                opacity: 1;              }              80% {                transform: skewX(-2deg);              }              to {                opacity: 1;                transform: translate3d(0, 0, 0);              }            }                    @keyframes slideUp {                0% {                    opacity: 0;                    transform: translateY(30px);                }                100% {                    opacity: 1;                    transform: inherit;                }            }        </style><g id="freepik--background-complete--inject-50" style="transform-origin: 247.444px 246.183px 0px;" class="animable"><path d="M420.23,121.51a7,7,0,0,1,1.16-4.08,6.75,6.75,0,0,1,3.13-2.73,5.47,5.47,0,0,1,6.41,1.78,5.62,5.62,0,0,1,1.32-2,5.52,5.52,0,0,1,4.08-1.53,6.8,6.8,0,0,1,3.85,1.56A7.11,7.11,0,0,1,442.6,118a8.57,8.57,0,0,1-.18,5.39,12.07,12.07,0,0,1-3.49,4.56c-2.43,2.08-5.64,4.71-5.64,4.71s-3.38-1.74-6.35-2.92a12.18,12.18,0,0,1-4.78-3.18A8.57,8.57,0,0,1,420.23,121.51Z" style="fill: rgb(245, 245, 245); transform-origin: 431.588px 122.802px 0px;" id="elvccjyig23p" class="animable"></path><path d="M67,168.39a13.26,13.26,0,0,1,2.17-7.67A12.72,12.72,0,0,1,75,155.6a10.42,10.42,0,0,1,8.18.23A10.25,10.25,0,0,1,87,159a10.24,10.24,0,0,1,2.48-3.77,10.43,10.43,0,0,1,7.66-2.88,12.75,12.75,0,0,1,7.23,2.94,13.24,13.24,0,0,1,4.54,6.54,16.14,16.14,0,0,1-.34,10.12,22.84,22.84,0,0,1-6.55,8.56c-4.55,3.9-10.59,8.84-10.59,8.84s-6.34-3.27-11.92-5.48a22.76,22.76,0,0,1-9-6A16.15,16.15,0,0,1,67,168.39Z" style="fill: rgb(235, 235, 235); transform-origin: 88.2787px 170.845px 0px;" id="elb32o0hwzhyj" class="animable"></path><path d="M323.36,97.72a15.76,15.76,0,0,1,4.28-8.47,15.16,15.16,0,0,1,8-4.66A12.27,12.27,0,0,1,349,91.24a12.28,12.28,0,0,1,3.74-3.85,12.49,12.49,0,0,1,9.62-1.63,15.23,15.23,0,0,1,7.78,5.07,15.81,15.81,0,0,1,3.82,8.68,19.17,19.17,0,0,1-2.69,11.75,27.26,27.26,0,0,1-9.59,8.53c-6.21,3.52-14.38,7.93-14.38,7.93s-6.68-5.27-12.7-9.11a27.35,27.35,0,0,1-9.14-9A19.24,19.24,0,0,1,323.36,97.72Z" style="fill: rgb(235, 235, 235); transform-origin: 348.603px 106.042px 0px;" id="eljtfvgk2gt4" class="animable"></path><path d="M292.73,56.06a8.46,8.46,0,0,1,2.9-4.16A8.16,8.16,0,0,1,300.24,50a6.64,6.64,0,0,1,4.88,1.85,6.54,6.54,0,0,1,1.67,2.68,6.51,6.51,0,0,1,2.28-1.75,6.64,6.64,0,0,1,5.21-.13A8.08,8.08,0,0,1,318,56a8.51,8.51,0,0,1,1.37,4.89,10.3,10.3,0,0,1-2.32,6,14.46,14.46,0,0,1-5.73,3.79c-3.56,1.4-8.22,3.11-8.22,3.11s-3.14-3.3-6-5.79a14.55,14.55,0,0,1-4.15-5.47A10.24,10.24,0,0,1,292.73,56.06Z" style="fill: rgb(235, 235, 235); transform-origin: 305.842px 61.8921px 0px;" id="el54826sdeadb" class="animable"></path><path d="M441,184.52a8.41,8.41,0,0,1,2.91-4.16,8.1,8.1,0,0,1,4.61-1.86,6.54,6.54,0,0,1,6.54,4.53,6.56,6.56,0,0,1,7.5-1.88,8.11,8.11,0,0,1,3.73,3.27,8.37,8.37,0,0,1,1.37,4.89,10.17,10.17,0,0,1-2.32,6,14.5,14.5,0,0,1-5.72,3.79c-3.56,1.4-8.23,3.11-8.23,3.11s-3.13-3.3-6-5.79a14.47,14.47,0,0,1-4.16-5.47A10.31,10.31,0,0,1,441,184.52Z" style="fill: rgb(235, 235, 235); transform-origin: 454.13px 190.351px 0px;" id="ellulmgsh1i6o" class="animable"></path><path d="M136.51,77.16a17.14,17.14,0,0,1,2.81-9.92,16.52,16.52,0,0,1,7.61-6.64,13.33,13.33,0,0,1,15.59,4.34,13.31,13.31,0,0,1,13.13-8.61,16.47,16.47,0,0,1,9.36,3.8,17.17,17.17,0,0,1,5.88,8.47,20.92,20.92,0,0,1-.44,13.11A29.58,29.58,0,0,1,182,92.8c-5.9,5.06-13.72,11.45-13.72,11.45S160,100,152.81,97.15a29.57,29.57,0,0,1-11.62-7.73A20.89,20.89,0,0,1,136.51,77.16Z" style="fill: rgb(245, 245, 245); transform-origin: 164.119px 80.2815px 0px;" id="elz0ks5croy4" class="animable"></path><path d="M38.41,57.06A21.88,21.88,0,0,1,45,45.68a21,21,0,0,1,11.47-5.82A16.93,16.93,0,0,1,74.33,50.08a16.92,16.92,0,0,1,18.9-6.54,21,21,0,0,1,10.37,7.61,21.93,21.93,0,0,1,4.62,12.29,26.63,26.63,0,0,1-4.64,16c-3.43,4.78-8.65,8.44-13.92,11.05-8.86,4.4-20.5,9.85-20.5,9.85s-8.83-7.8-16.86-13.58C47.53,83.38,43,78.92,40.37,73.64A26.62,26.62,0,0,1,38.41,57.06Z" style="fill: rgb(250, 250, 250); transform-origin: 73.0548px 70.0243px 0px;" id="el85v5h03v6ex" class="animable"></path><path d="M392.73,66.8a21.84,21.84,0,0,1,2.35-12.92,21,21,0,0,1,8.85-9.34,16.94,16.94,0,0,1,20.28,3.61,17,17,0,0,1,3.47-6.58,17.24,17.24,0,0,1,12.13-5.93,21,21,0,0,1,12.32,3.69,21.85,21.85,0,0,1,8.49,10,26.62,26.62,0,0,1,1,16.67c-1.63,5.66-5.31,10.86-9.4,15.09-6.87,7.12-16,16.17-16,16.17s-10.93-4.38-20.44-7.12c-5.65-1.64-11.43-4.31-15.66-8.4A26.53,26.53,0,0,1,392.73,66.8Z" style="fill: rgb(250, 250, 250); transform-origin: 427.534px 66.4479px 0px;" id="elw7piw6kbxa" class="animable"></path><path d="M99.82,120.43a5.61,5.61,0,0,1,2.23-2.54,5.4,5.4,0,0,1,3.2-.89,4.39,4.39,0,0,1,4,3.49,4.38,4.38,0,0,1,5.11-.69,5.43,5.43,0,0,1,2.23,2.46,5.6,5.6,0,0,1,.54,3.34,6.88,6.88,0,0,1-2,3.82,9.72,9.72,0,0,1-4.08,2.08c-2.46.66-5.68,1.45-5.68,1.45s-1.84-2.43-3.57-4.3a9.84,9.84,0,0,1-2.35-3.93A6.8,6.8,0,0,1,99.82,120.43Z" style="fill: rgb(235, 235, 235); transform-origin: 108.226px 124.973px 0px;" id="eluahnydydrvn" class="animable"></path><path d="M41.91,195.13a7.54,7.54,0,0,1,1.34-4.37,7.41,7.41,0,0,1,3.44-2.87,6,6,0,0,1,4.7.24A6.12,6.12,0,0,1,53.56,190,5.88,5.88,0,0,1,55,187.84a6,6,0,0,1,4.44-1.55,7.27,7.27,0,0,1,4.11,1.77,7.66,7.66,0,0,1,2.53,3.82,9.28,9.28,0,0,1-.33,5.8,13.17,13.17,0,0,1-3.87,4.84c-2.66,2.18-6.19,4.93-6.19,4.93s-3.6-2-6.78-3.3a12.94,12.94,0,0,1-5.07-3.54A9.19,9.19,0,0,1,41.91,195.13Z" style="fill: rgb(235, 235, 235); transform-origin: 54.1526px 196.863px 0px;" id="elinc2y4eimxm" class="animable"></path><ellipse cx="253.48" cy="443.43" rx="101.05" ry="13.3" style="fill: rgb(235, 235, 235); transform-origin: 253.48px 443.43px 0px;" id="elyajycwhifo9" class="animable"></ellipse><path d="M457.9,319c-15.57,41.61-48.82,66.24-88.58,48.3-37.36-16.86-43.93-59.54-22.39-98.38,21.28-38.36,57.94-62.13,88.58-48.3S473.92,276.14,457.9,319Z" style="fill: rgb(245, 245, 245); transform-origin: 400.362px 294.942px 0px;" id="elmc18vftf8s" class="animable"></path><path d="M431.24,230.27a19.23,19.23,0,0,1,7,5.92,11.57,11.57,0,0,1,2,9.11c-1.4,6.12-7.66,8.18-13.25,8.21-4.58,0-9.17-1-13.74-.47-7.78.87-14.33,5.94-20.86,10.28-6.79,4.52-14.94,8.55-22.85,6.1a7.16,7.16,0,0,1-4.07-2.89c-1.66-2.64-.24-5.09,1.21-7.16,13-18.73,27.85-30.67,50.6-32.28l1.75,0A27.67,27.67,0,0,1,431.24,230.27Z" style="fill: rgb(250, 250, 250); transform-origin: 402.595px 248.626px 0px;" id="el1fka6u3sjcb" class="animable"></path><path d="M375.74,353.1c-32.52-14.67-41.7-48.92-29.31-83.18-20.93,38.59-14.18,80.72,22.88,97.44,39.64,17.89,72.8-6.54,88.43-47.91C440.41,351.87,410.57,368.82,375.74,353.1Z" style="fill: rgb(224, 224, 224); transform-origin: 396.219px 321.609px 0px;" id="elvpxih1ragq" class="animable"></path><path d="M117.8,294.63c17.2,29.4,15.74,61.09-14.18,76-28.1,14-56.66-2.71-69.31-34.32-12.5-31.22-8.88-64.52,14.17-76S100.1,264.37,117.8,294.63Z" style="fill: rgb(245, 245, 245); transform-origin: 78.0475px 316.074px 0px;" id="elqzq2pripicg" class="animable"></path><path d="M52.17,267.54a14.78,14.78,0,0,1,6.9-1.29,8.89,8.89,0,0,1,6.38,3.22c3,3.79,1.16,8.51-1.53,11.85-2.2,2.74-5,5-6.93,7.94-3.25,5.05-3.41,11.4-4,17.37-.61,6.23-2.15,13-7.44,16.54a5.44,5.44,0,0,1-3.68,1c-2.38-.29-3.14-2.32-3.68-4.18-4.83-16.81-4.74-31.41,5.32-45.71l.87-1A21.24,21.24,0,0,1,52.17,267.54Z" style="fill: rgb(250, 250, 250); transform-origin: 51.0363px 295.211px 0px;" id="elgzyi16k6r6i" class="animable"></path><path d="M98.31,360C73.84,372.22,49,361.1,34.68,337.15c12.8,31.12,41.11,47.5,69,33.57C133.5,355.82,135,324.28,118,295,128.89,321,124.52,346.9,98.31,360Z" style="fill: rgb(235, 235, 235); transform-origin: 81.7924px 335.365px 0px;" id="el4w1f59w9l9t" class="animable"></path></g><g id="freepik--Floor--inject-50" style="transform-origin: 248.94px 373.1px 0px;" class="animable"><path d="M476.67,373.1c0,.14-102,.26-227.72.26s-227.74-.12-227.74-.26,101.94-.26,227.74-.26S476.67,373,476.67,373.1Z" style="fill: rgb(38, 50, 56); transform-origin: 248.94px 373.1px 0px;" id="elrbkv2v05vdl" class="animable"></path></g><g id="freepik--speech-bubble--inject-50" style="transform-origin: 397.083px 169.277px 0px;" class="animable"><path d="M365.1,193l1.31-8.4a34.32,34.32,0,1,1,7.39,9.82v0Z" style="fill: rgb(255, 255, 255); transform-origin: 397.082px 169.206px 0px;" id="elzwohaov8z0h" class="animable"></path><path d="M365.1,193l.59.08,1.7.26,6.44,1-.1.16v0a.1.1,0,0,1,0-.14.09.09,0,0,1,.12,0,34,34,0,0,0,48-1.95,35.39,35.39,0,0,0,4.4-5.8c.31-.53.58-1.09.88-1.64a17.54,17.54,0,0,0,.84-1.68,31,31,0,0,0,1.36-3.55,34.64,34.64,0,0,0,1.27-15.61A33.33,33.33,0,0,0,424.29,149a33.9,33.9,0,0,0-12.77-10.5,34.91,34.91,0,0,0-15.43-3.21A33.1,33.1,0,0,0,381.74,139,35,35,0,0,0,371,147.42a33.62,33.62,0,0,0-6.15,10.7c-.29.93-.56,1.85-.83,2.75s-.38,1.82-.57,2.71a31.62,31.62,0,0,0-.5,5.2,34.11,34.11,0,0,0,3.54,15.81s0,0,0,.06c-.44,2.68-.79,4.76-1,6.2-.12.7-.21,1.24-.28,1.62s-.11.56-.11.56,0-.17.07-.53.12-.92.22-1.61c.21-1.45.52-3.56.92-6.27v.06a34.06,34.06,0,0,1-3.69-15.91,31.06,31.06,0,0,1,.48-5.25c.18-.9.35-1.82.56-2.75l.82-2.78a34.31,34.31,0,0,1,6.19-10.85,35.53,35.53,0,0,1,10.85-8.61,33.53,33.53,0,0,1,14.55-3.71,35.12,35.12,0,0,1,15.66,3.24,34.38,34.38,0,0,1,13,10.65,33.71,33.71,0,0,1,6.44,15.36,35.06,35.06,0,0,1-1.29,15.84,33.1,33.1,0,0,1-1.39,3.6,18.13,18.13,0,0,1-.85,1.71c-.31.55-.58,1.12-.91,1.66A35.39,35.39,0,0,1,411,200.77a34.24,34.24,0,0,1-23,1.76,34.34,34.34,0,0,1-14.33-8l.16-.13v0a.1.1,0,0,1,0,.14.09.09,0,0,1-.07,0l-6.49-1.13-1.66-.29C365.28,193.08,365.1,193,365.1,193Z" style="fill: rgb(38, 50, 56); transform-origin: 397.083px 169.277px 0px;" id="eli11kyjo8xp8" class="animable"></path><path d="M380.27,165.39A10.57,10.57,0,0,1,383,159.7a10.13,10.13,0,0,1,5.3-3.19,8.16,8.16,0,0,1,8.94,4.28,8.12,8.12,0,0,1,2.45-2.6,8.26,8.26,0,0,1,6.38-1.2,10.23,10.23,0,0,1,5.24,3.29A10.49,10.49,0,0,1,414,166a12.78,12.78,0,0,1-1.66,7.85,18.11,18.11,0,0,1-6.29,5.79c-4.1,2.42-9.49,5.44-9.49,5.44s-4.51-3.43-8.56-5.93a18.09,18.09,0,0,1-6.18-5.9A12.76,12.76,0,0,1,380.27,165.39Z" style="fill: #92E3A9; transform-origin: 397.125px 170.708px 0px;" id="elr69n74rfscg" class="animable"></path></g><g id="freepik--Chicken--inject-50" style="transform-origin: 238.821px 260.855px 0px;" class="animable"><path d="M312.47,290.05c-4.52,9.43-7.44,19.89-6.41,30.29s6.47,20.69,15.56,25.84,21.83,4,28.71-3.84c-.35,8.26,8.11,15,16.37,14.89s15.66-5.61,20.44-12.34c9.17-12.9,10.29-30.37,5.55-45.47s-14.74-28.06-26.17-39" style="fill: #92E3A9; transform-origin: 350.644px 308.826px 0px;" id="eloj194nyjean" class="animable"></path><path d="M366.52,260.41s2.51,2.2,6.61,6.62a107.78,107.78,0,0,1,7.05,8.42A88.58,88.58,0,0,1,388,287.72a71.34,71.34,0,0,1,3.49,7.71,60.4,60.4,0,0,1,2.69,8.78,61.58,61.58,0,0,1,1.39,9.74,57.43,57.43,0,0,1-.38,10.43,45.85,45.85,0,0,1-7.92,20.77,33.23,33.23,0,0,1-8.46,8.3,22.68,22.68,0,0,1-11.47,4,17.43,17.43,0,0,1-12-4.15,15.61,15.61,0,0,1-3.94-4.92,12.29,12.29,0,0,1-1.32-6.05l.44.18a20.65,20.65,0,0,1-8.22,5.56,25.39,25.39,0,0,1-9.46,1.48,25.18,25.18,0,0,1-16.29-6.8,33.45,33.45,0,0,1-8.65-13.37,38.6,38.6,0,0,1-1.76-7,42.12,42.12,0,0,1-.44-6.6,56.15,56.15,0,0,1,3.9-19.23,57.23,57.23,0,0,1,2.87-6.52l-.18.43-.55,1.25c-.48,1.11-1.19,2.74-2,4.9A57,57,0,0,0,306,315.8a41.36,41.36,0,0,0,.47,6.54,37.16,37.16,0,0,0,1.77,6.91,33,33,0,0,0,8.58,13.17,24.69,24.69,0,0,0,16,6.64,24.76,24.76,0,0,0,9.27-1.46,20.09,20.09,0,0,0,8-5.42l.48-.54,0,.71a11.91,11.91,0,0,0,1.28,5.8,15.24,15.24,0,0,0,3.82,4.76,17,17,0,0,0,11.63,4A22.3,22.3,0,0,0,378.52,353a32.82,32.82,0,0,0,8.33-8.16,45.42,45.42,0,0,0,7.86-20.55,56.36,56.36,0,0,0,.4-10.33,61.15,61.15,0,0,0-4-18.41,70.57,70.57,0,0,0-3.45-7.68A88.91,88.91,0,0,0,380,275.62c-2.56-3.42-4.95-6.22-7-8.45s-3.65-3.91-4.77-5c-.54-.56-1-1-1.27-1.28Z" style="fill: rgb(38, 50, 56); transform-origin: 350.676px 308.937px 0px;" id="elm3gz96wd0k" class="animable"></path><g id="el15cyapbwiqk"><g style="opacity: 0.4; transform-origin: 350.641px 324.006px 0px;" class="animable" id="el5ak9zqk8pnt"><path d="M394.43,306.54c0,3.76-2.67,10.45-3.52,14.09a16,16,0,0,1-5.71,9.42c-3,2.2-7.4,2.78-10.57.78-.47,3.42-1.41,6.89-3.6,9.56s-5.86,4.33-9.17,3.38c-2.52-.72-4.42-2.77-6-4.86a48.6,48.6,0,0,1-8.42-17.44c-1.09,4.53-2.66,9-5.54,12.71s-7.25,6.38-11.91,6.37a15.26,15.26,0,0,1-10.58-4.82,28.68,28.68,0,0,1-6.1-10.16,52.06,52.06,0,0,1-.66-34.79l-.85.77c-4.11,9-6.71,18.94-5.73,28.79,1,10.4,6.47,20.69,15.56,25.84s21.83,4,28.71-3.84c-.35,8.26,8.11,15,16.37,14.89s15.66-5.61,20.44-12.34C394.9,334,396.88,319.8,394.43,306.54Z" style="fill: rgb(255, 255, 255); transform-origin: 350.641px 324.006px 0px;" id="el0w6ti55c9z7" class="animable"></path></g></g><path d="M263.65,140.76c51-1.32,81.07,33,95.54,55.47,12,18.66,17.7,51.55,16.86,77-1.22,37.07-11,75-38.9,100S270.37,410,232.78,407.45s-73.63-19-101.77-43.7c-18.68-16.37-32.54-41.07-43.57-63.16C80.57,286.84,75.5,269.53,84,261.92c7.47-6.66,25.26-6.2,32.37-13.18,0,0,9-24.3,15.57-40.65,12.78-31.6,36.2-52,62.11-62.18s41.66-5.32,69.57-5.15" style="fill: #92E3A9; transform-origin: 227.836px 273.622px 0px;" id="elumw9yj8v75n" class="animable"></path><path d="M270.53,70.78c-4.59-5-10.17-9.05-16.07-8.88-8.25.25-15.61,9.19-17.76,20a45.39,45.39,0,0,0,5.75,31.39c-3.7-4-7.46-8.06-11.81-10.58s-9.45-3.35-13.79-.8-7.58,9-6.7,15.36c.62,4.5,3.07,8.1,5.58,11.15s5.26,5.95,6.88,10,1.73,9.62-.78,12.69l61.19.51C293.05,125.11,287.55,89.53,270.53,70.78Z" style="fill: #92E3A9; transform-origin: 249.014px 106.757px 0px;" id="el36y709nf296" class="animable"></path><path d="M309.89,262.17c.59-3.19,1.39-6.7,3.63-9.17a12,12,0,0,1,9.26-3.65,10.72,10.72,0,0,1,8,3.86,14.66,14.66,0,0,1,2.85,8.63c.15,3.2,5.16,3.22,5,0-.31-6.46-3-13-9.21-15.9-6.56-3.05-15.36-1.59-20,4.2a23.61,23.61,0,0,0-4.35,10.7,2.56,2.56,0,0,0,1.74,3.07,2.52,2.52,0,0,0,3.08-1.74Z" style="fill: rgb(38, 50, 56); transform-origin: 321.813px 254.317px 0px;" id="el3ypwv953paz" class="animable"></path><path d="M216.09,262.17c.59-3.19,1.39-6.7,3.63-9.17a12.06,12.06,0,0,1,9.27-3.65,10.7,10.7,0,0,1,8,3.86,14.74,14.74,0,0,1,2.86,8.63c.15,3.2,5.15,3.22,5,0-.31-6.46-3-13-9.22-15.9-6.55-3.05-15.35-1.59-20,4.2a23.72,23.72,0,0,0-4.35,10.7,2.57,2.57,0,0,0,1.75,3.07,2.51,2.51,0,0,0,3.07-1.74Z" style="fill: rgb(38, 50, 56); transform-origin: 228.03px 254.317px 0px;" id="el3pznnlgz6v9" class="animable"></path><g id="el8t7id9znudu"><g style="opacity: 0.2; transform-origin: 220.15px 280.15px 0px;" class="animable" id="elvc5ds2ygbs"><ellipse cx="220.15" cy="280.15" rx="17.57" ry="9.37" style="fill: rgb(255, 255, 255); transform-origin: 220.15px 280.15px 0px;" id="elnon7940bjd" class="animable"></ellipse></g></g><g id="elmbaxdk42gu"><g style="opacity: 0.2; transform-origin: 336.96px 280.15px 0px;" class="animable" id="elinmgw7w21k9"><ellipse cx="336.96" cy="280.15" rx="17.57" ry="9.37" style="fill: rgb(255, 255, 255); transform-origin: 336.96px 280.15px 0px;" id="eldbhir6hx7tr" class="animable"></ellipse></g></g><path d="M302.1,278.61a56.35,56.35,0,0,0-9.4-12.06c-4-3.78-10-6.32-15.25-6l.19,0c-7.41-1.11-21.35,12.88-25.79,19.57-4.31,6.49,10.28,16.38,28,19.66h.57a26.82,26.82,0,0,0,20.09-9.13C306,284.53,304.05,281.75,302.1,278.61Z" style="fill: rgb(255, 154, 108); transform-origin: 277.592px 280.134px 0px;" id="elxf2zm27cpi" class="animable"></path><path d="M304.78,282.83a3.87,3.87,0,0,1-.11.65c-.05.23-.1.49-.17.79s-.2.67-.31,1.06a20.18,20.18,0,0,1-3.31,6.16,22.15,22.15,0,0,1-8.1,6.44,24.62,24.62,0,0,1-12.5,2A37.74,37.74,0,0,1,268,296.6a71.07,71.07,0,0,1-9.07-5c-2.47-1.61-4.42-3-5.76-3.95l-1.53-1.13a3,3,0,0,1-.51-.42,3.18,3.18,0,0,1,.57.34l1.59,1c1.37.91,3.35,2.24,5.84,3.81a75.19,75.19,0,0,0,9.06,4.91,38,38,0,0,0,12.1,3.26,24.56,24.56,0,0,0,12.26-1.92,22.14,22.14,0,0,0,8-6.24,20.8,20.8,0,0,0,3.4-6c.14-.38.26-.72.36-1s.16-.55.22-.77A2.71,2.71,0,0,1,304.78,282.83Z" style="fill: rgb(38, 50, 56); transform-origin: 277.955px 291.443px 0px;" id="el6j1w7fwjyu4" class="animable"></path><g id="el3mjh3b51wj7"><g style="opacity: 0.3; transform-origin: 276.82px 291.41px 0px;" class="animable" id="el1wse9wxpq9ti"><path d="M277.71,292.49c-9.26-1.31-18-5.14-26.57-9.46.57,6.23,13.47,13.94,28.74,16.76h1.51a24.55,24.55,0,0,0,17.11-7,27.27,27.27,0,0,0,4-4.65C295.07,292.48,286.14,293.67,277.71,292.49Z" id="elvpffa7nutd" style="transform-origin: 276.82px 291.41px 0px;" class="animable"></path></g></g><path d="M298.8,98.6c.31,0,1,3.12,1.15,8.34,0,1.31,0,2.74-.09,4.27s-.25,3.16-.45,4.88a71.63,71.63,0,0,1-2.41,11,72.6,72.6,0,0,1-4.2,10.43c-.81,1.53-1.56,3-2.39,4.28s-1.58,2.51-2.33,3.58c-3,4.25-5.42,6.44-5.66,6.24s1.55-2.85,4.11-7.24c.64-1.1,1.33-2.3,2-3.64s1.38-2.75,2.11-4.26a96.58,96.58,0,0,0,3.88-10.16A93.06,93.06,0,0,0,297,115.73c.25-1.65.53-3.22.67-4.71s.3-2.86.4-4.13C298.47,101.82,298.4,98.64,298.8,98.6Z" style="fill: #92E3A9; transform-origin: 291.174px 125.116px 0px;" id="el5tqpzf7jj0k" class="animable"></path><path d="M104.15,235.79c-6.63-1.09-10.93-1.88-15.18,3.34-2.62,3.2-2.74,4.84-2.66,9a53.06,53.06,0,0,0,2.17,12.2C86,259,77.84,262,78.07,270.26c.09,2.79.6,7.58,5.39,22.19,2.38,7.26,2.21-1.88,6.22,4.61l.45-6.91c5.52-18,22-31.39,38.13-41.07C123,243.4,111.79,237,104.15,235.79Z" style="fill: #92E3A9; transform-origin: 103.163px 266.025px 0px;" id="elellkg4xqg99" class="animable"></path><g id="el2v4n8xxuh3j"><g style="opacity: 0.4; transform-origin: 167.985px 191.6px 0px;" class="animable" id="elukc5j5rjwys"><path d="M216.41,140.13a88.83,88.83,0,0,0-22.33,5.78c-25.91,10.2-49.33,30.58-62.11,62.18-3.05,7.53-6.59,16.75-9.53,24.51l-2.88,10.47C134.89,196.78,171.71,159.62,216.41,140.13Z" style="fill: rgb(255, 255, 255); transform-origin: 167.985px 191.6px 0px;" id="elhmq7hdygst" class="animable"></path></g></g><g id="elwhs01gn4r6m"><g style="opacity: 0.4; transform-origin: 217.152px 113.661px 0px;" class="animable" id="elo23w4udr3v"><path d="M212.4,115.3a19.25,19.25,0,0,1,11.9-14.79,11.47,11.47,0,0,0-7.45,1.41c-4.35,2.55-7.58,9-6.7,15.36a20.69,20.69,0,0,0,4.4,9.66A19,19,0,0,1,212.4,115.3Z" style="fill: rgb(255, 255, 255); transform-origin: 217.152px 113.661px 0px;" id="eltr631r3v1ds" class="animable"></path></g></g><g id="eltg53mebpn6a"><g style="opacity: 0.4; transform-origin: 245.517px 87.315px 0px;" class="animable" id="el4y5wnh5r53"><path d="M240.9,110.49c.39.75.79,1.49,1.22,2.2.68-4.92-1-9.89-1.69-14.85a38.33,38.33,0,0,1,14.64-35.9c-.2,0-.41,0-.61,0-8.25.25-15.61,9.19-17.76,20a43.92,43.92,0,0,0,.8,19.52Z" style="fill: rgb(255, 255, 255); transform-origin: 245.517px 87.315px 0px;" id="elnp4x3m0s1im" class="animable"></path></g></g><g id="elsn0p33oyee"><g style="opacity: 0.4; transform-origin: 98.8126px 264.795px 0px;" class="animable" id="el4cd54e8hp4f"><path d="M104.15,235.79c-6.63-1.09-10.93-1.88-15.18,3.34-2.62,3.2-2.74,4.84-2.66,9a53.06,53.06,0,0,0,2.17,12.2C86,259,77.84,262,78.07,270.26c.09,2.79.6,7.58,5.39,22.19a13,13,0,0,0,.86,2.15A36.88,36.88,0,0,1,82,284.9c-.34-4.42-2.59-13.48,1.57-17.06,3.36-2.89,9.58-1.47,14.48,3.58a45.77,45.77,0,0,1-8.29-19A14.49,14.49,0,0,1,91.36,242c2.37-3.63,6.22-5.19,10.55-4.93,6.28.36,14,2.83,17.65,5.15C114.49,239.09,108.69,236.54,104.15,235.79Z" style="fill: rgb(255, 255, 255); transform-origin: 98.8126px 264.795px 0px;" id="eldcsl9yd81cw" class="animable"></path></g></g><path d="M86,297.83a1.23,1.23,0,0,1-.13-.2l-.35-.61c-.29-.54-.72-1.35-1.22-2.41a60.23,60.23,0,0,1-3.53-9.35c-.54-2-1.27-4.23-2-6.63a31.93,31.93,0,0,1-1.48-7.9,11.82,11.82,0,0,1,2.82-8.39,7.77,7.77,0,0,1,4.22-2.29,6.39,6.39,0,0,1,4.86.95l-.4.29c-.46-1.42-1-3-1.37-4.51a28.14,28.14,0,0,1-1.14-10.4,15.2,15.2,0,0,1,3.88-8.89,8.08,8.08,0,0,1,3.94-2.33,14.81,14.81,0,0,1,4.29-.46A31.9,31.9,0,0,1,106,236a48.83,48.83,0,0,1,10.27,4.21c1.14.64,2,1.18,2.59,1.55l.66.42.21.16-.24-.11-.68-.38c-.6-.34-1.49-.85-2.64-1.46a50.83,50.83,0,0,0-10.27-4,31.07,31.07,0,0,0-7.49-1.19,14.14,14.14,0,0,0-4.16.46,7.57,7.57,0,0,0-3.72,2.23,14.72,14.72,0,0,0-3.71,8.61,27.92,27.92,0,0,0,1.13,10.21c.42,1.54.9,3.06,1.36,4.48l.25.75-.64-.46a5.85,5.85,0,0,0-4.47-.86,7.24,7.24,0,0,0-4,2.13,11.34,11.34,0,0,0-2.71,8,31.21,31.21,0,0,0,1.41,7.79c.69,2.39,1.41,4.61,1.93,6.66a65.75,65.75,0,0,0,3.36,9.36c.48,1.07.88,1.89,1.14,2.44l.3.64C86,297.75,86,297.82,86,297.83Z" style="fill: rgb(38, 50, 56); transform-origin: 98.4995px 266.259px 0px;" id="elqlgkrdcifhr" class="animable"></path><path d="M123.42,230.52a11.5,11.5,0,0,1-.75,2.43c-.6,1.65-1.32,3.6-2.1,5.75-1.6,4.48-2.13,8.35-2.32,8.31a10.36,10.36,0,0,1,.27-2.53,35.38,35.38,0,0,1,1.55-5.95c.81-2.27,1.64-4.26,2.25-5.71A12.85,12.85,0,0,1,123.42,230.52Z" style="fill: rgb(38, 50, 56); transform-origin: 120.834px 238.765px 0px;" id="elxx07398kb4" class="animable"></path><g id="el9hb2w4wffbg"><g style="opacity: 0.3; transform-origin: 146.556px 315.989px 0px;" class="animable" id="el3gzovlnwqi8"><path d="M192.32,284l-60.09-13.76c-9.64,4.05-18.78,9.93-24.92,18.39s-8.91,19.76-5.53,29.65,13.64,17.51,24,16.2c-5.74,5.94-3.92,16.61,2.34,22s15.43,6.22,23.48,4.36C167,357.33,179.47,345,186,330.57S193.59,299.8,192.32,284Z" id="el8w9fjgnpw6y" style="transform-origin: 146.556px 315.989px 0px;" class="animable"></path></g></g><path d="M132.23,264.79c-9.64,4-18.78,9.93-24.92,18.38s-8.9,19.77-5.53,29.66,13.64,17.51,24,16.2c-5.74,5.94-3.92,16.61,2.34,22s15.43,6.21,23.48,4.36c15.42-3.55,27.86-15.87,34.35-30.3s7.63-30.77,6.36-46.54" style="fill: #92E3A9; transform-origin: 146.548px 310.537px 0px;" id="el0jw4j32bmkvl" class="animable"></path><path d="M192.32,278.55s.41,3.31.54,9.34c.06,3,0,6.7-.32,11a88,88,0,0,1-2.31,14.36,70.12,70.12,0,0,1-2.51,8.08,61.48,61.48,0,0,1-9.26,16.55,56.74,56.74,0,0,1-7.21,7.54,45.8,45.8,0,0,1-19.72,10.27,33.25,33.25,0,0,1-11.83.58,22.75,22.75,0,0,1-11.24-4.63,17.43,17.43,0,0,1-6.21-11.07,15.72,15.72,0,0,1,.33-6.3,12.36,12.36,0,0,1,3-5.4l.22.43A20.7,20.7,0,0,1,116,328a25.1,25.1,0,0,1-8-5.19,25.06,25.06,0,0,1-7.66-15.9,33.37,33.37,0,0,1,2.41-15.73,37.85,37.85,0,0,1,3.33-6.4,42.18,42.18,0,0,1,4-5.22,56.16,56.16,0,0,1,15.69-11.79,57.59,57.59,0,0,1,6.48-3l-.42.21-1.25.56c-1.08.51-2.7,1.26-4.72,2.35a56.75,56.75,0,0,0-15.54,11.85,43.4,43.4,0,0,0-4,5.2,37.13,37.13,0,0,0-3.26,6.35,33,33,0,0,0-2.34,15.54,24.66,24.66,0,0,0,7.55,15.59,24.72,24.72,0,0,0,7.9,5.07,20.23,20.23,0,0,0,9.59,1.27l.71-.08-.49.51a11.87,11.87,0,0,0-2.9,5.18,15.38,15.38,0,0,0-.31,6.09,17,17,0,0,0,6,10.74,22.35,22.35,0,0,0,11,4.52,32.65,32.65,0,0,0,11.64-.57A45.38,45.38,0,0,0,170.93,345a56.46,56.46,0,0,0,7.17-7.46,61.35,61.35,0,0,0,5.41-8.13,58.85,58.85,0,0,0,3.83-8.28,71.64,71.64,0,0,0,2.53-8,88.6,88.6,0,0,0,2.38-14.3c.36-4.26.44-7.94.41-10.95s-.14-5.34-.22-6.93l-.1-1.8C192.32,278.76,192.32,278.55,192.32,278.55Z" style="fill: rgb(38, 50, 56); transform-origin: 146.545px 310.66px 0px;" id="eloh07uqjlzkc" class="animable"></path><g id="elzetov6p31pc"><g style="opacity: 0.4; transform-origin: 141.441px 310.857px 0px;" class="animable" id="el7vnesmk97v6"><path d="M182.53,331.57c-2.47,2.83-8.93,6-12,8.19A15.89,15.89,0,0,1,160,343c-3.73-.37-7.37-2.83-8.42-6.43-2.61,2.24-5.63,4.21-9,4.75s-7.25-.65-9.1-3.56c-1.4-2.22-1.46-5-1.26-7.63a48.43,48.43,0,0,1,5.3-18.63c-3.82,2.67-8,5-12.59,5.82s-9.65-.05-13.13-3.15a15.31,15.31,0,0,1-4.71-10.63,28.87,28.87,0,0,1,2.19-11.65,52.08,52.08,0,0,1,22.62-26.44l-1.15,0c-9.07,4-17.59,9.69-23.41,17.7-6.14,8.46-8.91,19.77-5.53,29.66s13.64,17.51,24,16.2c-5.74,5.94-3.92,16.61,2.34,22s15.43,6.21,23.48,4.36C164.65,352.39,175.55,343.1,182.53,331.57Z" style="fill: rgb(255, 255, 255); transform-origin: 141.441px 310.857px 0px;" id="elzrp01a6a1vf" class="animable"></path></g></g><g id="elwz7s2guhwmd"><g style="opacity: 0.3; transform-origin: 247.5px 390.596px 0px;" class="animable" id="el8eydaml2uya"><path d="M305,380.56c-8.54,15.1-30,21.08-45.14,12.57-12.6,11.15-34.47,9.22-44.94-3.95a17.5,17.5,0,0,1-28.32-9.1A43.46,43.46,0,0,1,158,383.34c22.7,13.58,48.37,22.28,74.83,24.11C270.29,410,309.1,398.25,337,373.4A50.44,50.44,0,0,1,305,380.56Z" id="el1jhvf0ky305i" style="transform-origin: 247.5px 390.596px 0px;" class="animable"></path></g></g><path d="M237.61,442.47H220.15V394.21c5.32,3.74,9.48,5.56,17.63,6.15Z" style="fill: rgb(255, 154, 108); transform-origin: 228.965px 418.34px 0px;" id="eliz3l00ekxa" class="animable"></path><path d="M249.56,435.85a29,29,0,0,0-15.13-7.34l-12.58.83c-3.8,1.2-7.66,2.42-10.95,4.65s-6,5.65-6.43,9.6,2,8.31,5.89,9.19c4.35,1,8.42-2.29,11.56-5.45a13.58,13.58,0,0,0,4.73,10.29c3,2.42,7.63,3,10.93.93s4.61-8.62,2.47-11.87a9.47,9.47,0,0,0,7.66,2.06c2.49-.54,4.88-2.28,5.48-4.76C253.91,441,251.85,438,249.56,435.85Z" style="fill: rgb(255, 154, 108); transform-origin: 228.878px 444.163px 0px;" id="elzrc2n6z0sg" class="animable"></path><path d="M237.78,429a2.27,2.27,0,0,1-.59.42,12.14,12.14,0,0,1-1.77.87,18.47,18.47,0,0,1-6.33,1.3,22.22,22.22,0,0,1-6.43-.74,9.15,9.15,0,0,1-2.51-.93,35.53,35.53,0,0,0,8.92,1.15,21.44,21.44,0,0,0,6.23-1.13C236.84,429.37,237.73,428.88,237.78,429Z" style="fill: rgb(255, 191, 157); transform-origin: 228.965px 430.291px 0px;" id="el00431peui3m2h" class="animable"></path><path d="M237.61,417.27a9.52,9.52,0,0,1-2.48.79,31,31,0,0,1-12.48.21,9.3,9.3,0,0,1-2.5-.7,18.86,18.86,0,0,1,2.56.34,40.39,40.39,0,0,0,12.35-.21A20.13,20.13,0,0,1,237.61,417.27Z" style="fill: rgb(255, 191, 157); transform-origin: 228.88px 418.037px 0px;" id="elg5hct1gbsut" class="animable"></path><path d="M237.61,404.83a9.52,9.52,0,0,1-2.48.79,30.51,30.51,0,0,1-12.48.21,9.3,9.3,0,0,1-2.5-.7,18.86,18.86,0,0,1,2.56.34,40.64,40.64,0,0,0,6.18.38,39.45,39.45,0,0,0,6.17-.59A20.13,20.13,0,0,1,237.61,404.83Z" style="fill: rgb(255, 191, 157); transform-origin: 228.88px 405.602px 0px;" id="el3h7cidcxhe8" class="animable"></path><path d="M235.82,441.18a6.21,6.21,0,0,1,4.28,5.73,18.25,18.25,0,0,0-1.65-3.23A18.68,18.68,0,0,0,235.82,441.18Z" style="fill: rgb(255, 191, 157); transform-origin: 237.96px 444.045px 0px;" id="el7p9nwojq7lu" class="animable"></path><path d="M225,439.69a13.21,13.21,0,0,0-2.47,3.72,12.92,12.92,0,0,0-.6,4.41c-.06,0-.27-.47-.35-1.32a7.47,7.47,0,0,1,.46-3.28,7.55,7.55,0,0,1,1.82-2.76C224.44,439.87,224.92,439.64,225,439.69Z" style="fill: rgb(255, 191, 157); transform-origin: 223.277px 443.752px 0px;" id="elkj2eo6ej5hd" class="animable"></path><path d="M240.11,451.42a28.06,28.06,0,0,0-8.55-1.25,28.57,28.57,0,0,0-8.43,1.9,8.23,8.23,0,0,1,2.3-1.17,19.24,19.24,0,0,1,12.3-.48A8.25,8.25,0,0,1,240.11,451.42Z" style="fill: rgb(255, 191, 157); transform-origin: 231.62px 450.853px 0px;" id="ele8py78l20n" class="animable"></path><path d="M250.32,437.08c0,.09-.78.1-2,.35a13,13,0,0,0-4.41,1.87,12.71,12.71,0,0,0-3.39,3.38c-.7,1-1,1.74-1.09,1.71a5.12,5.12,0,0,1,.77-1.91,11.27,11.27,0,0,1,3.42-3.61,11.44,11.44,0,0,1,4.63-1.8A4.74,4.74,0,0,1,250.32,437.08Z" style="fill: rgb(255, 191, 157); transform-origin: 244.875px 440.676px 0px;" id="el410eadufe71" class="animable"></path><path d="M221.15,443.25a23.57,23.57,0,0,0-4.82-4.87c-3.15-2.16-6.25-2.87-6.18-3.05a6.43,6.43,0,0,1,2,.44,17.38,17.38,0,0,1,4.47,2.18,14.28,14.28,0,0,1,3.54,3.49A5.53,5.53,0,0,1,221.15,443.25Z" style="fill: rgb(255, 191, 157); transform-origin: 215.649px 439.29px 0px;" id="elr13vicoaghd" class="animable"></path><rect x="274.59" y="389.63" width="17.46" height="49.75" style="fill: rgb(255, 154, 108); transform-origin: 283.32px 414.505px 0px;" id="el166qgvq1kpi" class="animable"></rect><path d="M304,432.76a29,29,0,0,0-15.13-7.34l-12.58.83c-3.8,1.2-7.66,2.42-11,4.65s-6,5.65-6.43,9.61,2,8.3,5.89,9.18c4.35,1,8.42-2.29,11.56-5.45a13.56,13.56,0,0,0,4.73,10.29c3.05,2.43,7.63,3,10.93.93s4.61-8.61,2.46-11.87a9.46,9.46,0,0,0,7.67,2.06c2.49-.54,4.88-2.28,5.48-4.76C308.35,437.86,306.29,434.87,304,432.76Z" style="fill: rgb(255, 154, 108); transform-origin: 283.278px 441.075px 0px;" id="elpph0ck2o0v" class="animable"></path><path d="M292.22,425.87a2.27,2.27,0,0,1-.59.42,12.14,12.14,0,0,1-1.77.87,18.47,18.47,0,0,1-6.33,1.3,21.88,21.88,0,0,1-6.43-.74,9.15,9.15,0,0,1-2.51-.93,35.53,35.53,0,0,0,8.92,1.15,21.44,21.44,0,0,0,6.23-1.13C291.28,426.28,292.17,425.79,292.22,425.87Z" style="fill: rgb(255, 191, 157); transform-origin: 283.405px 427.167px 0px;" id="elovvztw5b4j" class="animable"></path><path d="M292.05,414.18a9.52,9.52,0,0,1-2.48.79,30.51,30.51,0,0,1-12.48.21,9.3,9.3,0,0,1-2.5-.7,18.86,18.86,0,0,1,2.56.34,40.39,40.39,0,0,0,12.35-.21A20.13,20.13,0,0,1,292.05,414.18Z" style="fill: rgb(255, 191, 157); transform-origin: 283.32px 414.952px 0px;" id="el6trvewv1za8" class="animable"></path><path d="M292.05,401.74a9.08,9.08,0,0,1-2.48.79,30.51,30.51,0,0,1-12.48.21,9.3,9.3,0,0,1-2.5-.7,21.1,21.1,0,0,1,2.56.34,40.64,40.64,0,0,0,6.18.38,39.45,39.45,0,0,0,6.17-.59A20.13,20.13,0,0,1,292.05,401.74Z" style="fill: rgb(255, 191, 157); transform-origin: 283.32px 402.512px 0px;" id="elc2mbslzlx3g" class="animable"></path><path d="M290.26,438.09a6.21,6.21,0,0,1,4.28,5.73,10.77,10.77,0,0,0-4.28-5.73Z" style="fill: rgb(255, 191, 157); transform-origin: 292.4px 440.955px 0px;" id="elxon4l9vcdx8" class="animable"></path><path d="M279.39,436.61a9.94,9.94,0,0,0-3.07,8.13,2.56,2.56,0,0,1-.35-1.33,7.47,7.47,0,0,1,.46-3.28,7.55,7.55,0,0,1,1.82-2.76C278.88,436.79,279.36,436.56,279.39,436.61Z" style="fill: rgb(255, 191, 157); transform-origin: 277.667px 440.672px 0px;" id="el3r6kce5wblk" class="animable"></path><path d="M294.55,448.33a23.62,23.62,0,0,0-17,.66,7.76,7.76,0,0,1,2.3-1.18,19.24,19.24,0,0,1,12.3-.48A8.25,8.25,0,0,1,294.55,448.33Z" style="fill: rgb(255, 191, 157); transform-origin: 286.05px 447.768px 0px;" id="elcolsu2qgm1" class="animable"></path><path d="M304.76,434c0,.09-.78.1-2,.35a13.06,13.06,0,0,0-4.41,1.88,12.7,12.7,0,0,0-3.39,3.37,17.91,17.91,0,0,1-1.09,1.71,5.19,5.19,0,0,1,.77-1.91,11.27,11.27,0,0,1,3.42-3.61,11.44,11.44,0,0,1,4.63-1.8A4.74,4.74,0,0,1,304.76,434Z" style="fill: rgb(255, 191, 157); transform-origin: 299.315px 437.595px 0px;" id="elglnaumuvhrp" class="animable"></path><path d="M275.59,440.16a23.85,23.85,0,0,0-4.82-4.87c-3.15-2.15-6.25-2.87-6.18-3.05a6.43,6.43,0,0,1,2,.44,17.38,17.38,0,0,1,4.47,2.18,14.46,14.46,0,0,1,3.54,3.49A5.79,5.79,0,0,1,275.59,440.16Z" style="fill: rgb(255, 191, 157); transform-origin: 270.089px 436.2px 0px;" id="el5e33hh8hrme" class="animable"></path><path d="M297.12,380.43c-6.1-1.37-12.5-1.95-18.57-.5s-11.82,5.16-14.67,10.71l2,4.53a35.91,35.91,0,0,0,33.77-7.66c1.07-1,2.15-2.19,2-3.62C301.5,381.85,299.12,380.87,297.12,380.43Z" style="fill: #92E3A9; transform-origin: 282.772px 387.827px 0px;" id="elhafbx7trclt" class="animable"></path><g id="el9beqs337hi"><g style="opacity: 0.4; transform-origin: 273.309px 275.098px 0px;" class="animable" id="el4po9sdzezms"><path d="M285.3,272.48a26.66,26.66,0,0,0-6.55-7.87,3,3,0,0,0-2.85-.38,34.06,34.06,0,0,0-16.08,13.25c-.55.85-1.05,2-.46,2.81a2.72,2.72,0,0,0,1.5.83l12.92,3.81c3,.9,6.17,1.81,9.37.78a6.18,6.18,0,0,0,3.6-3C288.25,279.7,287.46,276.53,285.3,272.48Z" style="fill: rgb(255, 255, 255); transform-origin: 273.309px 275.098px 0px;" id="elqhf4x96i3ba" class="animable"></path></g></g><path d="M300.18,352a2.31,2.31,0,0,1-.16.64,13.06,13.06,0,0,1-.71,1.76,17.47,17.47,0,0,1-4.29,5.46,21.14,21.14,0,0,1-15.44,4.6,14.25,14.25,0,0,1-6.24-2.1c-.31-.19-.59-.42-.88-.63s-.53-.47-.78-.7h.38a24.89,24.89,0,0,1-9.94,6.5A25.54,25.54,0,0,1,252.6,369a23.39,23.39,0,0,1-6.37-1,14.4,14.4,0,0,1-1.64-.61,3,3,0,0,1-.56-.25c0-.05.8.26,2.25.67a25.28,25.28,0,0,0,6.33.88,29.3,29.3,0,0,0,4.42-.31A28.12,28.12,0,0,0,262,367a24.67,24.67,0,0,0,9.71-6.41l.17-.18.21.17c.24.22.48.45.74.66s.54.43.84.61a14,14,0,0,0,6,2,19.41,19.41,0,0,0,6-.23,20.24,20.24,0,0,0,9.17-4.14,18,18,0,0,0,4.35-5.27c.37-.73.64-1.3.79-1.7A6,6,0,0,1,300.18,352Z" style="fill: rgb(38, 50, 56); transform-origin: 272.105px 360.509px 0px;" id="elzxbkdkg3isk" class="animable"></path><path d="M376.13,267.48a.94.94,0,0,1,0,.27c0,.21,0,.47,0,.79,0,.74,0,1.75.06,3s0,2.95,0,4.81-.16,4-.26,6.36-.35,4.94-.59,7.7-.69,5.7-1.12,8.8c-.19,1.55-.5,3.12-.82,4.72s-.63,3.24-1,4.91c-.83,3.3-1.56,6.74-2.66,10.18s-2.19,6.78-3.32,10c-.63,1.58-1.26,3.13-1.86,4.64s-1.33,3-2,4.39a114.15,114.15,0,0,1-8,14.54c-1.23,2-2.53,3.72-3.59,5.27s-2.14,2.76-2.94,3.8l-2,2.3-.53.59-.19.19s.05-.09.15-.23l.49-.62,1.92-2.35c.78-1.06,1.77-2.34,2.86-3.85s2.32-3.27,3.52-5.29a121.16,121.16,0,0,0,7.84-14.55c.62-1.43,1.34-2.86,1.93-4.38l1.84-4.63c1.12-3.2,2.35-6.49,3.3-9.95,1.1-3.43,1.83-6.86,2.66-10.14.33-1.66.66-3.29,1-4.89s.63-3.16.83-4.71c.44-3.08.94-6,1.16-8.76s.59-5.32.65-7.68.24-4.47.34-6.35,0-3.47,0-4.8,0-2.3.05-3c0-.32,0-.58,0-.79A1,1,0,0,1,376.13,267.48Z" style="fill: rgb(38, 50, 56); transform-origin: 360.763px 316.11px 0px;" id="eluutph96nus" class="animable"></path><path d="M144.72,175.52c-.31,1.4-4.24,1.73-8.79.74s-8-2.94-7.67-4.35,4.24-1.73,8.79-.74S145,174.11,144.72,175.52Z" style="fill: #92E3A9; transform-origin: 136.487px 173.714px 0px;" id="elfmp9kweovb" class="animable"></path><path d="M147.94,169.29c-1.33.53-3.34-1.33-4.48-4.17s-1-5.58.36-6.12,3.34,1.34,4.48,4.18S149.28,168.75,147.94,169.29Z" style="fill: #92E3A9; transform-origin: 145.877px 164.144px 0px;" id="eltcqmktqa8ti" class="animable"></path><path d="M393.29,253.94c.73,1.24-1,3.61-3.87,5.31s-5.78,2.06-6.51.82,1-3.61,3.86-5.31S392.55,252.7,393.29,253.94Z" style="fill: #92E3A9; transform-origin: 388.1px 257.005px 0px;" id="elp01nrnj1o2" class="animable"></path><path d="M400.36,267.62c-.23,1.42-3.69,2-7.72,1.39s-7.13-2.33-6.9-3.75,3.69-2,7.73-1.39S400.59,266.2,400.36,267.62Z" style="fill: #92E3A9; transform-origin: 393.05px 266.44px 0px;" id="elg4k39p29n9k" class="animable"></path></g><defs>     <filter id="active" height="200%">         <feMorphology in="SourceAlpha" result="DILATED" operator="dilate" radius="2"></feMorphology>                <feFlood flood-color="#32DFEC" flood-opacity="1" result="PINK"></feFlood>        <feComposite in="PINK" in2="DILATED" operator="in" result="OUTLINE"></feComposite>        <feMerge>            <feMergeNode in="OUTLINE"></feMergeNode>            <feMergeNode in="SourceGraphic"></feMergeNode>        </feMerge>    </filter>    <filter id="hover" height="200%">        <feMorphology in="SourceAlpha" result="DILATED" operator="dilate" radius="2"></feMorphology>                <feFlood flood-color="#ff0000" flood-opacity="0.5" result="PINK"></feFlood>        <feComposite in="PINK" in2="DILATED" operator="in" result="OUTLINE"></feComposite>        <feMerge>            <feMergeNode in="OUTLINE"></feMergeNode>            <feMergeNode in="SourceGraphic"></feMergeNode>        </feMerge>            <feColorMatrix type="matrix" values="0   0   0   0   0                0   1   0   0   0                0   0   0   0   0                0   0   0   1   0 "></feColorMatrix>    </filter></defs></svg>